<svg width="54" height="50" viewBox="0 0 54 50" fill="none" xmlns="http://www.w3.org/2000/svg">
<mask id="mask0_1_77" style="mask-type:alpha" maskUnits="userSpaceOnUse" x="0" y="0" width="54" height="50">
<path d="M29.7756 0.00307588C31.7458 -0.00392443 33.716 0.0144102 35.6856 0.0580742L36.2094 0.0755735C36.8142 0.0955728 37.4108 0.120572 38.1317 0.150571C41.0044 0.275567 42.9645 0.695553 44.6843 1.31303C46.4662 1.94801 47.9673 2.80798 49.4684 4.19793C50.841 5.44691 51.9032 6.95771 52.5814 8.62528C53.2482 10.2177 53.7018 12.0352 53.8368 14.6951C53.8692 15.3601 53.8962 15.915 53.9178 16.475L53.934 16.96C53.982 18.7829 54.0027 20.6064 53.9961 22.4298L53.9988 24.2948V27.5696C54.0054 29.3939 53.9847 31.2182 53.9367 33.042L53.9205 33.5269C53.8989 34.0869 53.8719 34.6394 53.8395 35.3069C53.7045 37.9668 53.2455 39.7817 52.5814 41.3742C51.9054 43.0435 50.8429 44.5556 49.4684 45.804C48.1184 47.0748 46.4859 48.0583 44.6843 48.6864C42.9645 49.3039 41.0044 49.7239 38.1317 49.8489C37.4108 49.8789 36.8142 49.9039 36.2094 49.9239L35.6856 49.9389C33.716 49.9833 31.7458 50.0025 29.7756 49.9964L27.7615 49.9989H24.2274C22.2572 50.005 20.287 49.9859 18.3174 49.9414L17.7936 49.9264C17.1527 49.9049 16.5119 49.8799 15.8713 49.8514C12.9987 49.7264 11.0386 49.3014 9.31608 48.6864C7.51442 48.0598 5.8825 47.076 4.53463 45.804C3.16052 44.5548 2.09726 43.043 1.41899 41.3742C0.75212 39.7817 0.298542 37.9668 0.163549 35.3069C0.133481 34.7137 0.106482 34.1204 0.0825536 33.5269L0.0690546 33.042C0.0192789 31.2182 -0.00322241 29.3939 0.00155782 27.5696V22.4298C-0.0059774 20.6064 0.0138237 18.7829 0.060955 16.96L0.0798539 16.475C0.101453 15.915 0.128451 15.3601 0.16085 14.6951C0.295843 12.0327 0.749419 10.2202 1.41629 8.62528C2.09496 6.95689 3.1603 5.4465 4.53733 4.20043C5.88427 2.92736 7.51517 1.94194 9.31608 1.31303C11.0386 0.695553 12.996 0.275567 15.8713 0.150571L17.7936 0.0755735L18.3174 0.0630743C20.2861 0.0170079 22.2554 -0.003827 24.2247 0.00057615L29.7756 0.00307588ZM27.0002 12.5027C25.2115 12.4792 23.4357 12.7852 21.7759 13.4028C20.1161 14.0204 18.6054 14.9373 17.3316 16.1002C16.0578 17.2631 15.0463 18.6488 14.3559 20.1768C13.6655 21.7048 13.31 23.3446 13.31 25.001C13.31 26.6573 13.6655 28.2971 14.3559 29.8252C15.0463 31.3532 16.0578 32.7389 17.3316 33.9018C18.6054 35.0647 20.1161 35.9816 21.7759 36.5992C23.4357 37.2168 25.2115 37.5227 27.0002 37.4993C30.5804 37.4993 34.014 36.1824 36.5456 33.8383C39.0772 31.4941 40.4995 28.3148 40.4995 24.9997C40.4995 21.6846 39.0772 18.5053 36.5456 16.1612C34.014 13.8171 30.5804 12.5027 27.0002 12.5027ZM27.0002 17.5025C28.0761 17.4841 29.1452 17.6645 30.145 18.033C31.1448 18.4015 32.0552 18.9508 32.8232 19.6488C33.5911 20.3468 34.2012 21.1794 34.6177 22.0982C35.0342 23.0169 35.2488 24.0033 35.249 24.9997C35.2491 25.9961 35.0349 26.9826 34.6187 27.9014C34.2026 28.8203 33.5928 29.6532 32.8251 30.3514C32.0574 31.0496 31.1471 31.5992 30.1475 31.968C29.1478 32.3368 28.0788 32.5175 27.0029 32.4995C24.8547 32.4995 22.7946 31.7093 21.2756 30.3028C19.7566 28.8964 18.9033 26.9888 18.9033 24.9997C18.9033 23.0107 19.7566 21.1031 21.2756 19.6966C22.7946 18.2901 24.8547 17.5 27.0029 17.5L27.0002 17.5025ZM41.1744 8.75278C40.3035 8.78506 39.4797 9.12814 38.8758 9.71017C38.2719 10.2922 37.9346 11.068 37.9346 11.8752C37.9346 12.6823 38.2719 13.4581 38.8758 14.0402C39.4797 14.6222 40.3035 14.9653 41.1744 14.9976C42.0695 14.9976 42.9279 14.6683 43.5608 14.0823C44.1937 13.4963 44.5493 12.7014 44.5493 11.8727C44.5493 11.0439 44.1937 10.2491 43.5608 9.66304C42.9279 9.07701 42.0695 8.74778 41.1744 8.74778V8.75278Z" fill="#C3CBFF"/>
</mask>
<g mask="url(#mask0_1_77)">
<rect x="1.08" width="52.92" height="51.0417" rx="15" fill="#BBBBBB"/>
</g>
</svg>
