<svg width="57" height="50" viewBox="0 0 57 50" fill="none" xmlns="http://www.w3.org/2000/svg">
<path fill-rule="evenodd" clip-rule="evenodd" d="M20.4402 29.4467L28.5057 35.8967L36.2805 29.6233L53.7082 49.7333C53.2494 49.9067 52.7592 50 52.2491 50H4.75095C4.12395 50 3.52545 49.8567 2.9754 49.6L20.4402 29.4467ZM57 12.92V44.4433C57 45.2667 56.8461 46.0467 56.5725 46.75L39.4896 27.0367L57 12.92ZM2.68927e-06 13.0967L17.2197 26.87L0.302103 46.3967C0.101736 45.7721 -0.000604865 45.1104 2.68927e-06 44.4433V13.0967ZM52.2491 0C54.871 0 57 2.48667 57 5.55667V7.51L28.4943 30.4933L2.68927e-06 7.7V5.55667C2.68927e-06 2.49 2.1261 0 4.75095 0H52.2491Z" fill="#BBBBBB"/>
</svg>
